<svg width="203" height="60" viewBox="0 0 203 60" fill="none" xmlns="http://www.w3.org/2000/svg">
<g clip-path="url(#clip0_553_1042)">
<path d="M59.7872 27.8033H68.6843V22.4907H73.2904V37.4807H68.6843V31.7029H59.7872V37.4807H55.1582V22.4907H59.7872V27.8033Z" fill="white"/>
<path d="M76.1948 37.4807V22.4907H80.8238V37.4807H76.1948Z" fill="white"/>
<path d="M82.806 37.4806L85.7794 33.5809H97.2201C98.1596 33.5809 98.5836 33.288 98.5836 32.616C98.5836 31.944 98.1367 31.6282 97.1743 31.6282H89.085C85.4413 31.6282 83.3388 29.9683 83.3388 27.1254C83.3388 24.0355 85.4184 22.4849 89.6407 22.4849H102.714L99.7408 26.3845H89.2797C88.3173 26.3845 87.8704 26.7004 87.8704 27.3494C87.8704 27.9984 88.3173 28.3373 89.2797 28.3373H97.4378C101.15 28.3373 103.115 29.8363 103.115 32.6849C103.115 35.9758 101.236 37.4806 97.0826 37.4806H82.8003H82.806Z" fill="white"/>
<path d="M105.155 25.0693C105.155 23.3234 106.117 22.2437 107.681 22.2437C108.374 22.2437 108.913 22.4676 109.514 23.0305L118.474 31.2319V22.4964H122.897V34.9305C122.897 36.6535 121.935 37.7562 120.371 37.7562C119.678 37.7562 119.139 37.5093 118.515 36.9292L109.595 28.7738V37.492H105.149V25.0808L105.155 25.0693Z" fill="white"/>
<path d="M131.732 37.4807V26.3904H124.335L127.378 22.4907H144.095L141.053 26.3904H136.338V37.4807H131.732Z" fill="white"/>
<path d="M150.236 28.3201H162.061L159.379 31.634H150.236V33.581H162.954L160.004 37.4807H145.613V22.4907H162.931L159.935 26.3904H150.236V28.3144V28.3201Z" fill="white"/>
<path d="M172.785 37.4807C167.623 37.4807 163.779 34.207 163.779 29.8421C163.779 25.4772 167.509 22.4907 172.785 22.4907H183.246L180.296 26.3904H172.785C169.904 26.3904 168.385 27.5793 168.385 29.8421C168.385 32.105 170.018 33.581 172.785 33.581H183.246L180.296 37.4807H172.785Z" fill="white"/>
<path d="M189.503 27.8033H198.4V22.4907H203.006V37.4807H198.4V31.7029H189.503V37.4807H184.874V22.4907H189.503V27.8033Z" fill="white"/>
<path d="M40.2288 23.5072V46.6067C40.2288 47.6117 39.6902 48.5364 38.808 49.0533L20.1201 59.9942V10.1196L38.808 21.0606C39.6902 21.5775 40.2288 22.5079 40.2288 23.5072Z" fill="white"/>
<path d="M20.1144 10.1196V60L1.42078 49.059C0.538522 48.5421 0 47.6117 0 46.6124V23.5129C0 22.5079 0.538522 21.5775 1.42078 21.0606L20.1144 10.1196Z" fill="white"/>
<path d="M6.47373 8.21289V14.318C6.47373 15.3518 5.9352 16.3052 5.05294 16.8393L0 19.8832V13.7781C0 12.7443 0.538522 11.791 1.42078 11.2568L6.47373 8.21289Z" fill="white"/>
<path d="M14.9127 3.13013V9.23523C14.9127 10.269 14.3742 11.2224 13.4919 11.7565L8.43896 14.8005V8.69536C8.43896 7.66157 8.97749 6.70819 9.85975 6.17406L14.9127 3.13013Z" fill="white"/>
<path d="M20.1143 0V7.77065L16.8774 9.71762V3.61252C16.8774 2.57873 17.416 1.62535 18.2982 1.09122L20.1143 0Z" fill="white"/>
<path d="M23.3511 3.61252V9.71762L20.1143 7.77065V0L21.9303 1.09122C22.8126 1.62535 23.3511 2.57873 23.3511 3.61252Z" fill="white"/>
<path d="M31.7901 8.69536V14.8005L26.7372 11.7565C25.8549 11.2224 25.3164 10.269 25.3164 9.23523V3.13013L30.3693 6.17406C31.2516 6.70819 31.7901 7.66157 31.7901 8.69536Z" fill="white"/>
<path d="M40.2286 13.7781V19.8832L35.1757 16.8393C34.2934 16.3052 33.7549 15.3518 33.7549 14.318V8.21289L38.8078 11.2568C39.6901 11.791 40.2286 12.7443 40.2286 13.7781Z" fill="white"/>
<path d="M12.9706 19.5271V22.9558C12.9706 23.9609 12.4436 24.8913 11.59 25.4025L8.65674 27.1714V23.7427C8.65674 22.7376 9.1838 21.8129 10.0374 21.296L12.9706 19.5271Z" fill="#FF3333"/>
<path d="M19.1693 20.8424V50.9142L20.1088 51.4828V56.5311L4.51457 47.1408C3.23129 46.3712 2.45215 44.9814 2.45215 43.4824V25.862C4.34843 24.7191 6.77178 26.0917 6.77178 28.3086V43.4422L8.65088 44.5736V30.985C8.65088 29.9799 9.17795 29.0553 10.0316 28.5384L12.9648 26.7694V47.1696L14.8496 48.301V16.1903L19.1693 13.5886V15.7883L20.1088 15.2197V20.2681L19.1693 20.8366V20.8424Z" fill="#066CFF"/>
<path d="M37.7714 25.862V43.4824C37.7714 44.9814 36.9865 46.3655 35.709 47.1408L20.1147 56.5311V51.4828L21.0543 50.9142V20.8481L20.1147 20.2795V15.2312L23.9933 17.5687C24.8469 18.0856 25.3739 19.016 25.3739 20.0153V48.3125L33.4575 43.4422V28.3086L31.5727 27.1772V40.7601C31.5727 41.7651 31.0456 42.6898 30.192 43.2067L27.2588 44.9756V24.5755C27.2588 22.3529 29.6764 20.986 31.5784 22.1289L37.7771 25.862H37.7714Z" fill="#5FE1FF"/>
</g>
<defs>
<clipPath id="clip0_553_1042">
<rect width="203" height="60" fill="white"/>
</clipPath>
</defs>
</svg>
