<svg width="374" height="234" viewBox="0 0 374 234" fill="none" xmlns="http://www.w3.org/2000/svg">
<g clip-path="url(#clip0_553_1070)">
<path d="M11.7057 208.851H34.2059V195.427H45.8483V233.315H34.2059V218.7H11.7057V233.315H0V195.427H11.7057V208.851Z" fill="white"/>
<path d="M53.2007 233.328V195.439H64.9064V233.328H53.2007Z" fill="white"/>
<path d="M69.9429 233.328L77.4598 223.479H106.414C108.793 223.479 109.869 222.744 109.869 221.045C109.869 219.347 108.742 218.548 106.313 218.548H85.8499C76.6373 218.548 71.3222 214.352 71.3222 207.165C71.3222 199.344 76.5866 195.439 87.2673 195.439H120.347L112.83 205.289H86.3688C83.9391 205.289 82.8128 206.087 82.8128 207.723C82.8128 209.358 83.9391 210.22 86.3688 210.22H107.009C116.399 210.22 121.372 214.01 121.372 221.21C121.372 229.538 116.626 233.328 106.11 233.328H69.9808H69.9429Z" fill="white"/>
<path d="M126.472 201.942C126.472 197.531 128.902 194.806 132.863 194.806C134.609 194.806 135.976 195.376 137.494 196.783L160.172 217.508V195.427H171.371V226.863C171.371 231.224 168.942 234 164.981 234C163.234 234 161.868 233.379 160.286 231.908L137.722 211.297V233.328H126.472V201.955V201.942Z" fill="white"/>
<path d="M193.707 233.328V205.289H174.991L182.685 195.439H224.977L217.283 205.289H205.35V233.328H193.707Z" fill="white"/>
<path d="M240.517 210.156H270.433L263.65 218.535H240.53V223.466H272.698L265.232 233.315H228.824V195.427H272.648L265.068 205.276H240.53V210.144L240.517 210.156Z" fill="white"/>
<path d="M297.565 233.328C284.505 233.328 274.773 225.063 274.773 214.01C274.773 202.956 284.214 195.439 297.565 195.439H324.026L316.56 205.289H297.565C290.276 205.289 286.428 208.293 286.428 214.01C286.428 219.727 290.554 223.466 297.565 223.466H324.026L316.56 233.316H297.565V233.328Z" fill="white"/>
<path d="M339.858 208.851H362.358V195.427H374V233.315H362.358V218.7H339.858V233.315H328.152V195.427H339.858V208.851Z" fill="white"/>
<path d="M237.885 59.4254V117.824C237.885 120.359 236.518 122.704 234.291 124.01L187.013 151.669V25.5803L234.291 53.2395C236.518 54.5451 237.885 56.8902 237.885 59.4254Z" fill="white"/>
<path d="M187 25.5803V151.669L139.709 124.01C137.482 122.704 136.115 120.359 136.115 117.824V59.4254C136.115 56.8902 137.482 54.5451 139.709 53.2395L187 25.5803Z" fill="white"/>
<path d="M152.503 20.7634V36.2029C152.503 38.8141 151.137 41.2226 148.909 42.5662L136.128 50.2606V34.8212C136.128 32.2099 137.495 29.8015 139.722 28.4578L152.503 20.7634Z" fill="white"/>
<path d="M173.839 7.92261V23.362C173.839 25.9733 172.472 28.3818 170.245 29.7254L157.464 37.4198V21.9804C157.464 19.3691 158.831 16.9606 161.058 15.617L173.839 7.92261Z" fill="white"/>
<path d="M187 0V19.6352L178.812 24.5662V9.12676C178.812 6.51549 180.179 4.10704 182.406 2.76338L187 0Z" fill="white"/>
<path d="M195.188 9.12676V24.5662L187 19.6352V0L191.594 2.76338C193.821 4.10704 195.188 6.52817 195.188 9.12676Z" fill="white"/>
<path d="M216.536 21.9803V37.4198L203.755 29.7254C201.528 28.3817 200.161 25.9606 200.161 23.362V7.90991L212.942 15.6043C215.17 16.9479 216.536 19.3691 216.536 21.9677V21.9803Z" fill="white"/>
<path d="M237.885 34.8212V50.2606L225.104 42.5662C222.876 41.2226 221.51 38.8015 221.51 36.2029V20.7634L234.291 28.4578C236.518 29.8015 237.885 32.2226 237.885 34.8212Z" fill="white"/>
<path d="M168.942 49.3606V58.031C168.942 60.5662 167.613 62.924 165.449 64.2169L158.021 68.6789V60.0085C158.021 57.4733 159.349 55.1282 161.513 53.8226L168.942 49.3606Z" fill="#FF3333"/>
<path d="M184.621 52.6816V128.687L187 130.12V142.884L147.555 119.142C144.315 117.19 142.329 113.679 142.329 109.901V65.3704C147.137 62.4802 153.25 65.9408 153.25 71.5563V109.813L158.008 112.677V78.338C158.008 75.8027 159.337 73.4577 161.501 72.152L168.929 67.6774V119.244L173.687 122.108V40.9309L184.608 34.3521V39.9168L186.987 38.4844V51.2492L184.608 52.6816H184.621Z" fill="#066CFF"/>
<path d="M231.671 65.3703V109.901C231.671 113.691 229.685 117.19 226.445 119.142L187 142.884V130.12L189.379 128.687V52.6816L187 51.2492V38.4844L196.807 44.3914C198.971 45.6971 200.3 48.0548 200.3 50.5773V122.108L220.75 109.8V71.5435L215.992 68.6787V103.018C215.992 105.553 214.663 107.898 212.499 109.204L205.071 113.666V62.0999C205.071 56.4844 211.183 53.0238 215.992 55.914L231.671 65.3449V65.3703Z" fill="#5FE1FF"/>
</g>
<defs>
<clipPath id="clip0_553_1070">
<rect width="374" height="234" fill="white"/>
</clipPath>
</defs>
</svg>
